<svg data-name="Layer 1" xmlns="http://www.w3.org/2000/svg" xmlns:xlink="http://www.w3.org/1999/xlink" width="1500" height="1200"><rect id="backgroundrect" width="100%" height="100%" x="0" y="0" fill="none" stroke="none"/><defs><style>.cls-1,.cls-7{fill:none;}.cls-2{clip-path:url(#clip-path);}.cls-3{fill:#e8e8e8;}.cls-4{fill:#cecece;}.cls-5{fill:#8c0027;}.cls-6{fill:#c16e57;}.cls-7{stroke:#f8c09d;stroke-miterlimit:10;stroke-width:29px;}.cls-8{fill:#4c2a18;}.cls-9{fill:#9b4531;}.cls-10{fill:#cc7a5e;}.cls-11{fill:#f8c09d;}.cls-12{fill:#ba624a;}.cls-13{fill:#ee8379;}.cls-14{fill:#262626;}.cls-15{fill:#d88068;}.cls-16{fill:#515151;}.cls-17{fill:#d8e8ea;}.cls-18{fill:#777;}.cls-19{fill:#fff;}</style><clipPath id="clip-path"><rect class="cls-1" y="-0.6100000143051147" width="1600" height="1080" id="svg_1"/></clipPath></defs><title>404Image</title><g class="currentLayer" style=""><title>Layer 1</title><g class="cls-2" id="svg_69" transform=""><path class="cls-5" id="svg_70" transform=""/><path class="cls-6" d="M1170.3108215332031,1042.9205322265625 h-53.29999923706055 V856.8204345703125 A78.81999969482422,78.81999969482422 0 0 0 1105.5508117675781,815.8804931640625 l-97.30999755859375,-160.10000610351562 l45.54999923706055,-27.68000030517578 L1151.0908508300781,788.1904296875 a132.16000366210938,132.16000366210938 0 0 1 19.219999313354492,68.62999725341797 z" id="svg_71"/><path class="cls-7" d="M798.7209777832031,665.46044921875 l-95.31999969482422,149.0800018310547 a60.2400016784668,60.2400016784668 0 0 1 -93.33999633789062,10.149999618530273 l-133,-133 " id="svg_72"/><path class="cls-6" d="M652.5509338378906,868.990478515625 a86.41999816894531,86.41999816894531 0 0 1 -61.29999923706055,-25.459999084472656 L477.5508728027344,729.8104248046875 l37.689998626708984,-37.689998626708984 l113.72000122070312,113.72000122070312 a33.58000183105469,33.58000183105469 0 0 0 52,-5.659999847412109 l95.31999969482422,-149.07000732421875 l44.90999984741211,28.709999084472656 l-95.31999969482422,149.0800018310547 A87.0999984741211,87.0999984741211 0 0 1 652.5509338378906,868.990478515625 z" id="svg_73"/><path class="cls-8" d="M774.6909484863281,463.760498046875 h0 a12.510000228881836,12.510000228881836 0 0 1 -12.520000457763672,-12.520000457763672 V355.490478515625 a2,2 0 0 1 2,-2 h21.09000015258789 a2,2 0 0 1 2,2 v95.75 A12.510000228881836,12.510000228881836 0 0 1 774.6909484863281,463.760498046875 z" id="svg_74"/><path class="cls-6" d="M855.5508117675781,586.1204223632812 h103.3499984741211 a86.91999816894531,86.91999816894531 0 0 1 86.91999816894531,86.91999816894531 v372.2099914550781 a0,0 0 0 1 0,0 H768.5508117675781 a0,0 0 0 1 0,0 V673.0404052734375 A86.91999816894531,86.91999816894531 0 0 1 855.5508117675781,586.1204223632812 z" id="svg_75"/><path class="cls-9" d="M807.2109680175781,339.7704772949219 h175.5 l5.260000228881836,4.889999866485596 c29,27 20,48.810001373291016 -20.049999237060547,48.810001373291016 H937.5508117675781 c-40.060001373291016,0 -96,-21.850000381469727 -125,-48.810001373291016 z" id="svg_76"/><path class="cls-10" d="M1089.3508605957031,709.3804931640625 V824.7705078125 H725.0207824707031 V709.3804931640625 a123.25,123.25 0 0 1 123.26000213623047,-123.26000213623047 h117.80999755859375 A123.25,123.25 0 0 1 1089.3508605957031,709.3804931640625 z" id="svg_77"/><path class="cls-11" d="M858.5508117675781,508.5804748535156 h68.22000122070312 a0,0 0 0 1 0,0 v77.72000122070312 a32.7400016784668,32.7400016784668 0 0 1 -32.7400016784668,32.7400016784668 h-2.75 A32.7400016784668,32.7400016784668 0 0 1 858.5508117675781,586.3004150390625 V508.5804748535156 A0,0 0 0 1 858.5508117675781,508.5804748535156 z" id="svg_78"/><path class="cls-11" d="M979.8308410644531,315.9704895019531 V456.30047607421875 a106.30000305175781,106.30000305175781 0 0 1 -212.60000610351562,0 V315.9704895019531 z" id="svg_79"/><polygon class="cls-8" points="979.8308410644531,315.9704895019531 979.8308410644531,411.6705322265625 963.7607727050781,411.6705322265625 963.7607727050781,333.740478515625 767.2309875488281,333.740478515625 767.2309875488281,315.9704895019531 979.8308410644531,315.9704895019531 " id="svg_80"/><path class="cls-8" d="M959.7309875488281,463.760498046875 h0 a12.520000457763672,12.520000457763672 0 0 1 -12.520000457763672,-12.520000457763672 V336.5204772949219 a2,2 0 0 1 2,-2 h21.09000015258789 a2,2 0 0 1 2,2 V451.240478515625 A12.520000457763672,12.520000457763672 0 0 1 959.7309875488281,463.760498046875 z" id="svg_81"/><path class="cls-12" d="M982.7507629394531,303.6304931640625 v36.16999816894531 H764.3108215332031 V303.6304931640625 a109.22000122070312,109.22000122070312 0 0 1 218.44000244140625,0 z" id="svg_82"/><path class="cls-10" d="M939.9409484863281,303.6304931640625 v36.16999816894531 H764.3108215332031 V303.6304931640625 a109.23999786376953,109.23999786376953 0 0 1 87.83000183105469,-107.11000061035156 a109.25,109.25 0 0 1 87.80000305175781,107.11000061035156 z" id="svg_83"/><path class="cls-13" d="M841.5508117675781,456.0904541015625 h0 a18.18000030517578,18.18000030517578 0 0 1 -18.18000030517578,-18.170000076293945 V414.70050048828125 A18.170000076293945,18.170000076293945 0 0 1 841.5508117675781,396.530517578125 h0 a18.170000076293945,18.170000076293945 0 0 1 18.170000076293945,18.170000076293945 v23.219999313354492 A18.18000030517578,18.18000030517578 0 0 1 841.5508117675781,456.0904541015625 z" id="svg_84"/><path class="cls-13" d="M976.1709289550781,453.760498046875 l-5,2.3299999237060547 V396.530517578125 l5,-2.3399999141693115 c12.609999656677246,-5.840000152587891 22.829999923706055,2.75 22.829999923706055,19.200000762939453 h0 C999.0007629394531,429.83050537109375 988.7807922363281,447.9105224609375 976.1709289550781,453.760498046875 z" id="svg_85"/><circle class="cls-14" cx="892.6508483886719" cy="391.5304641723633" r="10.449951171875" id="svg_86"/><circle class="cls-14" cx="803.8108825683594" cy="391.5304641723633" r="10.449951171875" id="svg_87"/><circle class="cls-12" cx="1654.2608947753906" cy="1601.720344543457" r="10.449951171875" transform="rotate(-76.78, 369.541, 1386.14)" id="svg_88"/><path class="cls-10" d="M841.6208801269531,478.9005126953125 h0 a6.670000076293945,6.670000076293945 0 0 1 -6.670000076293945,6.670000076293945 h-18.139999389648438 a46.06999969482422,46.06999969482422 0 0 0 -32.58000183105469,13.489999771118164 l-27.260000228881836,27.260000228881836 a58.88999938964844,58.88999938964844 0 0 1 -39.279998779296875,17.34000015258789 c-0.8899999856948853,0 -1.7999999523162842,0.05999999865889549 -2.690000057220459,0.05999999865889549 h-11.369999885559082 a15.880000114440918,15.880000114440918 0 0 1 -6.78000020980835,-1.5099999904632568 V530.3905029296875 h18.149999618530273 A45.7599983215332,45.7599983215332 0 0 0 747.5508117675781,516.9104614257812 l27.270000457763672,-27.270000457763672 a59,59 0 0 1 42,-17.399999618530273 h18.139999389648438 A6.670000076293945,6.670000076293945 0 0 1 841.6208801269531,478.9005126953125 z" id="svg_89"/><path class="cls-10" d="M723.0808410644531,484.3604736328125 a9.329999923706055,9.329999923706055 0 0 1 9.329999923706055,9.319999694824219 v34 a16.049999237060547,16.049999237060547 0 0 1 -14.720000267028809,16 c-0.4399999976158142,0 -0.8899999856948853,0.05999999865889549 -1.340000033378601,0.05999999865889549 h-12.720000267028809 a15.880000114440918,15.880000114440918 0 0 1 -6.78000020980835,-1.5099999904632568 a16,16 0 0 1 -9.270000457763672,-14.550000190734863 v-34 a9.329999923706055,9.329999923706055 0 0 1 9.329999923706055,-9.319999694824219 z" id="svg_90"/><path class="cls-8" d="M899.6509094238281,374.19049072265625 h-20.3700008392334 a7.53000020980835,7.53000020980835 0 0 1 -7.53000020980835,-7.53000020980835 h0 a7.53000020980835,7.53000020980835 0 0 1 7.53000020980835,-7.53000020980835 h20.3700008392334 a7.539999961853027,7.539999961853027 0 0 1 7.539999961853027,7.53000020980835 h0 A7.539999961853027,7.539999961853027 0 0 1 899.6509094238281,374.19049072265625 z" id="svg_91"/><path class="cls-15" d="M940.1208801269531,339.7704772949219 h-175.5 l-5.269999980926514,3.5999999046325684 c-29,19.8700008392334 -20,36 20,36 h30.43000030517578 c40.060001373291016,0 96,-16.100000381469727 125,-36 z" id="svg_92"/><path class="cls-16" d="M459.9708557128906,722.3604736328125 h0 A10.899999618530273,10.899999618530273 0 0 1 447.5508728027344,713.1904296875 L430.4508972167969,599.6004028320312 a0.699999988079071,0.699999988079071 0 0 1 0.5899999737739563,-0.800000011920929 l20.170000076293945,-3 a0.699999988079071,0.699999988079071 0 0 1 0.800000011920929,0.5899999737739563 l17.1200008392334,113.61000061035156 A10.90999984741211,10.90999984741211 0 0 1 459.9708557128906,722.3604736328125 z" id="svg_93"/><circle class="cls-17" cx="433.4408874511719" cy="1697.9104080200195" r="53.80999755859375" transform="rotate(-68.61, -411.319, 1121.74)" id="svg_94"/><path class="cls-18" d="M442.1408996582031,603.970458984375 a59.2599983215332,59.2599983215332 0 1 1 49.77000045776367,-67.43000030517578 A59.34000015258789,59.34000015258789 0 0 1 442.1408996582031,603.970458984375 zm-16,-106.41999816894531 a48.349998474121094,48.349998474121094 0 1 0 55,40.619998931884766 A48.40999984741211,48.40999984741211 0 0 0 426.1108703613281,497.5504455566406 z" id="svg_95"/><rect class="cls-10" x="344.2308654785156" y="748.1005325317383" width="26.149999618530273" height="96.30999755859375" transform="rotate(-8.57, -504.749, 105.28)" id="svg_96"/><circle class="cls-19" cx="514.9850521087646" cy="286.2437210083008" r="13.279998779296875" transform="matrix(0.8, -0.61, 0.61, 0.8, -170.46, 611.95)" id="svg_97"/><path class="cls-6" d="M890.3308410644531,615.0704345703125 h0 A68.19000244140625,68.19000244140625 0 0 1 958.5508117675781,683.2705078125 V888.970458984375 a0,0 0 0 1 0,0 H822.1408996582031 a0,0 0 0 1 0,0 V683.2705078125 a68.19000244140625,68.19000244140625 0 0 1 68.19000244140625,-68.19000244140625 z" id="svg_98"/><circle class="cls-9" cx="1297.2709045410156" cy="2567.3708572387695" r="12.1099853515625" transform="rotate(-81.41, -4.5092, 1858.99)" id="svg_99"/><circle class="cls-9" cx="705.1009216308594" cy="1226.9404373168945" r="12.1099853515625" transform="rotate(-19.5, -596.679, 448.291)" id="svg_100"/><circle class="cls-9" cx="890.3309020996094" cy="824.7705154418945" r="12.1099853515625" id="svg_101"/><circle class="cls-9" cx="890.3309020996094" cy="895.0305252075195" r="12.1099853515625" id="svg_102"/><circle class="cls-9" cx="890.3309020996094" cy="962.870491027832" r="12.1099853515625" id="svg_103"/><polygon class="cls-12" points="954.6308898925781,620.3304443359375 917.8108215332031,662.660400390625 890.3308410644531,617.7404174804688 927.1509094238281,575.42041015625 954.6308898925781,620.3304443359375 " id="svg_104"/><polygon class="cls-12" points="830.6709289550781,620.3304443359375 867.4809875488281,662.660400390625 894.9709777832031,617.7404174804688 858.1509094238281,575.42041015625 830.6709289550781,620.3304443359375 " id="svg_105"/><circle class="cls-11" cx="493.1308898925781" cy="2110.2304763793945" r="48.509765625" transform="rotate(-80.92, -372.239, 1411.88)" id="svg_106"/><circle class="cls-18" cx="683.5909118652344" cy="441.2005081176758" r="14.889984130859375" id="svg_107"/><circle class="cls-18" cx="695.9008483886719" cy="465.63050079345703" r="7.019989013671875" id="svg_108"/><circle class="cls-18" cx="674.9108581542969" cy="315.00049591064453" r="19.1300048828125" id="svg_109"/><circle class="cls-18" cx="702.9709167480469" cy="403.0404739379883" r="19.1300048828125" id="svg_110"/><circle class="cls-18" cx="631.7008972167969" cy="851.8405227661133" r="27.079986572265625" transform="rotate(-22.9, -485.079, 436.441)" id="svg_111"/><circle class="cls-18" cx="670.9008483886719" cy="284.13050079345703" r="33.44000244140625" id="svg_112"/><path class="cls-19" d="M594.7809143066406,384.9105224609375 h0 a7.309999942779541,7.309999942779541 0 0 1 9.770000457763672,-3.4000000953674316 l49.56999969482422,24 a7.320000171661377,7.320000171661377 0 0 1 3.4000000953674316,9.770000457763672 h0 a7.309999942779541,7.309999942779541 0 0 1 -9.770000457763672,3.4000000953674316 l-49.56999969482422,-24 A7.309999942779541,7.309999942779541 0 0 1 594.7809143066406,384.9105224609375 z" id="svg_113"/><rect class="cls-19" x="329.6908874511719" y="154.75048828125" width="288.5899963378906" height="258.3599853515625" rx="62.61000061035156" ry="62.61000061035156" id="svg_114"/><path class="cls-14" d="M398.6408996582031,231.90048217773438 v-23 h-3.940000057220459 c-0.7799999713897705,0 -1.1699999570846558,0.5299999713897705 -1.1699999570846558,1.5700000524520874 v2.380000114440918 l-5.159999847412109,-0.36000001430511475 v-8.59000015258789 h26.459999084472656 v8.59000015258789 l-5.159999847412109,0.36000001430511475 v-2.380000114440918 a2.130000114440918,2.130000114440918 0 0 0 -0.25999999046325684,-1.2100000381469727 c-0.17000000178813934,-0.23999999463558197 -0.5699999928474426,-0.36000001430511475 -1.2100000381469727,-0.36000001430511475 h-3.440000057220459 v24.18000030517578 l4,0.15000000596046448 v4.300000190734863 H394.4908752441406 v-4.099999904632568 l2.680000066757202,-0.15000000596046448 C398.1508483886719,233.19049072265625 398.6408996582031,232.75048828125 398.6408996582031,231.90048217773438 z" id="svg_115"/><path class="cls-14" d="M420.3408508300781,231.90048217773438 V207.2705078125 a1.690000057220459,1.690000057220459 0 0 0 -0.2800000011920929,-1.1100000143051147 a1.4500000476837158,1.4500000476837158 0 0 0 -1,-0.3499999940395355 l-1.7699999809265137,-0.10000000149011612 v-4.199999809265137 h9 v13.600000381469727 a8.510000228881836,8.510000228881836 0 0 1 7.380000114440918,-3.740000009536743 a7.809999942779541,7.809999942779541 0 0 1 5.940000057220459,2.200000047683716 q2.0999999046325684,2.200000047683716 2.0999999046325684,6.599999904632568 v13.199999809265137 l2.880000114440918,0.15000000596046448 v4.050000190734863 H432.5508728027344 v-3.8499999046325684 l1.6699999570846558,-0.15000000596046448 a2,2 0 0 0 1.1100000143051147,-0.4300000071525574 a1.7000000476837158,1.7000000476837158 0 0 0 0.3499999940395355,-1.2400000095367432 V221.48049926757812 a8.09000015258789,8.09000015258789 0 0 0 -0.8299999833106995,-4 c-0.5600000023841858,-0.9399999976158142 -1.6399999856948853,-1.4199999570846558 -3.240000009536743,-1.4199999570846558 a5.110000133514404,5.110000133514404 0 0 0 -3.8399999141693115,1.4900000095367432 a5,5 0 0 0 -1.440000057220459,3.619999885559082 v12.239999771118164 l2.880000114440918,0.15000000596046448 v4.050000190734863 h-12 v-3.8499999046325684 l1.6699999570846558,-0.15000000596046448 a1.899999976158142,1.899999976158142 0 0 0 1.1100000143051147,-0.4300000071525574 A1.649999976158142,1.649999976158142 0 0 0 420.3408508300781,231.90048217773438 z" id="svg_116"/><path class="cls-14" d="M460.2908630371094,211.3704833984375 a9.079999923706055,9.079999923706055 0 0 1 6,1.850000023841858 a6.360000133514404,6.360000133514404 0 0 1 2.2300000190734863,5.179999828338623 a7.809999942779541,7.809999942779541 0 0 1 -3.3399999141693115,6.570000171661377 a12.149999618530273,12.149999618530273 0 0 1 -3.440000057220459,1.5700000524520874 a26.520000457763672,26.520000457763672 0 0 1 -7.639999866485596,1 a6.730000019073486,6.730000019073486 0 0 0 1.6699999570846558,4.329999923706055 a6.059999942779541,6.059999942779541 0 0 0 4.659999847412109,1.6399999856948853 a10.850000381469727,10.850000381469727 0 0 0 6.269999980926514,-2.2200000286102295 l1.9199999570846558,4.090000152587891 a12,12 0 0 1 -3.4200000762939453,1.8700000047683716 a14.670000076293945,14.670000076293945 0 0 1 -5.480000019073486,1 c-4.119999885559082,0 -7.130000114440918,-1.1399999856948853 -9.0600004196167,-3.4200000762939453 s-2.880000114440918,-5.400000095367432 -2.880000114440918,-9.380000114440918 a15.350000381469727,15.350000381469727 0 0 1 3.2899999618530273,-10 A11.1899995803833,11.1899995803833 0 0 1 460.2908630371094,211.3704833984375 zm-2.299999952316284,11.5600004196167 a8.25,8.25 0 0 0 3.4200000762939453,-1.4700000286102295 a3.299999952316284,3.299999952316284 0 0 0 1.559999942779541,-2.7100000381469727 q0,-3.0799999237060547 -3,-3.0799999237060547 a4.929999828338623,4.929999828338623 0 0 0 -4.349999904632568,2.25 a10.350000381469727,10.350000381469727 0 0 0 -1.6699999570846558,5.389999866485596 A27.5,27.5 0 0 0 457.9908752441406,222.93051147460938 z" id="svg_117"/><path class="cls-14" d="M475.2108459472656,231.90048217773438 v-14 a1.75,1.75 0 0 0 -0.2800000011920929,-1.1299999952316284 a1.3300000429153442,1.3300000429153442 0 0 0 -1,-0.3799999952316284 l-2.130000114440918,-0.15000000596046448 v-4.099999904632568 h8.550000190734863 v3.7899999618530273 a7.900000095367432,7.900000095367432 0 0 1 2.8299999237060547,-3.259999990463257 a7.760000228881836,7.760000228881836 0 0 1 4.429999828338623,-1.2899999618530273 a10.779999732971191,10.779999732971191 0 0 1 4.78000020980835,1.1100000143051147 v7.539999961853027 l-4.710000038146973,0.3499999940395355 v-2.319999933242798 c0,-0.6800000071525574 -0.17000000178813934,-1.100000023841858 -0.5,-1.2699999809265137 a3.2899999618530273,3.2899999618530273 0 0 0 -1.3700000047683716,-0.25 a4.239999771118164,4.239999771118164 0 0 0 -3.309999942779541,1.440000057220459 a5.289999961853027,5.289999961853027 0 0 0 -1.2899999618530273,3.6700000762939453 v11.729999542236328 l4.400000095367432,0.20000000298023224 v4 H472.0809020996094 v-3.8499999046325684 l1.659999966621399,-0.15000000596046448 a2,2 0 0 0 1.1200000047683716,-0.4300000071525574 A1.7000000476837158,1.7000000476837158 0 0 0 475.2108459472656,231.90048217773438 z" id="svg_118"/><path class="cls-14" d="M508.1408996582031,211.3704833984375 a9.100000381469727,9.100000381469727 0 0 1 6,1.850000023841858 a6.349999904632568,6.349999904632568 0 0 1 2.2200000286102295,5.179999828338623 a7.829999923706055,7.829999923706055 0 0 1 -1,3.9200000762939453 a7.670000076293945,7.670000076293945 0 0 1 -2.380000114440918,2.6500000953674316 a12,12 0 0 1 -3.440000057220459,1.5700000524520874 a26.450000762939453,26.450000762939453 0 0 1 -7.630000114440918,1 a6.679999828338623,6.679999828338623 0 0 0 1.6699999570846558,4.329999923706055 a6,6 0 0 0 4.650000095367432,1.6399999856948853 a10.800000190734863,10.800000190734863 0 0 0 6.269999980926514,-2.2200000286102295 l1.9199999570846558,4.090000152587891 a11.760000228881836,11.760000228881836 0 0 1 -3.4100000858306885,1.8700000047683716 a14.6899995803833,14.6899995803833 0 0 1 -5.489999771118164,1 q-6.159999847412109,0 -9,-3.4200000762939453 t-2.890000104904175,-9.380000114440918 a15.350000381469727,15.350000381469727 0 0 1 3.2899999618530273,-10 A11.1899995803833,11.1899995803833 0 0 1 508.1408996582031,211.3704833984375 zm-2.299999952316284,11.5600004196167 a8.210000038146973,8.210000038146973 0 0 0 3.4100000858306885,-1.4700000286102295 a3.309999942779541,3.309999942779541 0 0 0 1.5700000524520874,-2.7100000381469727 q0,-3.0799999237060547 -3,-3.0799999237060547 a4.940000057220459,4.940000057220459 0 0 0 -4.349999904632568,2.25 a10.350000381469727,10.350000381469727 0 0 0 -1.6699999570846558,5.389999866485596 A27.639999389648438,27.639999389648438 0 0 0 505.8408508300781,222.93051147460938 z" id="svg_119"/><path class="cls-14" d="M519.8208923339844,212.3804931640625 l2.930000066757202,-11.9399995803833 a14.149999618530273,14.149999618530273 0 0 1 4.659999847412109,1.1699999570846558 a1.6799999475479126,1.6799999475479126 0 0 1 1,1.5700000524520874 a4,4 0 0 1 -0.5600000023841858,2 l-4.809999942779541,8.34000015258789 z" id="svg_120"/><path class="cls-14" d="M539.8508605957031,215.97048950195312 a8.489999771118164,8.489999771118164 0 0 0 -2.940000057220459,-0.44999998807907104 a4.460000038146973,4.460000038146973 0 0 0 -2.75,0.7799999713897705 a2.3399999141693115,2.3399999141693115 0 0 0 -1,1.9199999570846558 a3.4700000286102295,3.4700000286102295 0 0 0 0.3799999952316284,1.7699999809265137 a3.0899999141693115,3.0899999141693115 0 0 0 1.190000057220459,1.090000033378601 a15,15 0 0 0 3,1.1399999856948853 c1.1799999475479126,0.3199999928474426 2.059999942779541,0.5699999928474426 2.630000114440918,0.7599999904632568 a15.279999732971191,15.279999732971191 0 0 1 2.1500000953674316,0.9300000071525574 a6.389999866485596,6.389999866485596 0 0 1 1.9500000476837158,1.4199999570846558 a6.710000038146973,6.710000038146973 0 0 1 1.7699999809265137,4.800000190734863 a7.130000114440918,7.130000114440918 0 0 1 -2.759999990463257,5.949999809265137 a11,11 0 0 1 -7,2.1500000953674316 c-4.119999885559082,0 -7.21999979019165,-0.5299999713897705 -9.3100004196167,-1.5700000524520874 v-7 l4.550000190734863,-0.36000001430511475 v2.430000066757202 q0,2.240000009536743 4.25,2.2300000190734863 t4.25,-3.0899999141693115 a2.4100000858306885,2.4100000858306885 0 0 0 -0.7300000190734863,-1.8200000524520874 a4.199999809265137,4.199999809265137 0 0 0 -1.440000057220459,-1 c-0.47999998927116394,-0.17000000178813934 -1,-0.3400000035762787 -1.7000000476837158,-0.5099999904632568 s-1.2999999523162842,-0.33000001311302185 -1.9199999570846558,-0.5 a20.899999618530273,20.899999618530273 0 0 1 -2,-0.6800000071525574 a15.369999885559082,15.369999885559082 0 0 1 -2.4000000953674316,-1.2400000095367432 q-2.5799999237060547,-1.6799999475479126 -2.5799999237060547,-5.590000152587891 a7.159999847412109,7.159999847412109 0 0 1 2.7799999713897705,-6 a11.229999542236328,11.229999542236328 0 0 1 7,-2.119999885559082 a18.8700008392334,18.8700008392334 0 0 1 8.369999885559082,2 v6.070000171661377 l-4.550000190734863,0.36000001430511475 V217.69049072265625 A1.7100000381469727,1.7100000381469727 0 0 0 539.8508605957031,215.97048950195312 z" id="svg_121"/><path class="cls-14" d="M388.9808654785156,276.8605041503906 v-4 H397.5508728027344 v3.2899999618530273 a9.170000076293945,9.170000076293945 0 0 1 3.490000009536743,-3 a10.3100004196167,10.3100004196167 0 0 1 4.699999809265137,-1.090000033378601 a7.789999961853027,7.789999961853027 0 0 1 5.940000057220459,2.200000047683716 q2.0999999046325684,2.2100000381469727 2.0999999046325684,6.599999904632568 v13.199999809265137 l2.890000104904175,0.15000000596046448 v4.050000190734863 h-12 v-3.8499999046325684 l1.6699999570846558,-0.15000000596046448 a1.9299999475479126,1.9299999475479126 0 0 0 1.1100000143051147,-0.4300000071525574 a1.659999966621399,1.659999966621399 0 0 0 0.3499999940395355,-1.2400000095367432 V282.19049072265625 a7.860000133514404,7.860000133514404 0 0 0 -0.8500000238418579,-4.130000114440918 c-0.5799999833106995,-0.8899999856948853 -1.6699999570846558,-1.340000033378601 -3.2699999809265137,-1.340000033378601 a5,5 0 0 0 -3.819999933242798,1.5199999809265137 a5.099999904632568,5.099999904632568 0 0 0 -1.409999966621399,3.5899999141693115 v12.239999771118164 l2.880000114440918,0.15000000596046448 v4.050000190734863 h-12 v-3.8499999046325684 l1.6699999570846558,-0.15000000596046448 a2,2 0 0 0 1.1200000047683716,-0.4300000071525574 a1.7000000476837158,1.7000000476837158 0 0 0 0.3499999940395355,-1.2400000095367432 v-14 q0,-1.5099999904632568 -1.2599999904632568,-1.559999942779541 z" id="svg_122"/><path class="cls-14" d="M419.1208801269531,285.510498046875 a17.3700008392334,17.3700008392334 0 0 1 1.1200000047683716,-6.5 a10,10 0 0 1 3,-4.21999979019165 a12.8100004196167,12.8100004196167 0 0 1 7.940000057220459,-2.7300000190734863 a12,12 0 0 1 5.139999866485596,1 a10.359999656677246,10.359999656677246 0 0 1 3.2799999713897705,2.2699999809265137 a10.600000381469727,10.600000381469727 0 0 1 2,3.740000009536743 a18.260000228881836,18.260000228881836 0 0 1 0.8299999833106995,5.800000190734863 q0,7 -3.390000104904175,10.569999694824219 a11.40999984741211,11.40999984741211 0 0 1 -8.670000076293945,3.5899999141693115 a10.390000343322754,10.390000343322754 0 0 1 -8.270000457763672,-3.4200000762939453 Q419.1308898925781,292.19049072265625 419.1208801269531,285.510498046875 zm11.640000343322754,9.0600004196167 q5.5,0 5.510000228881836,-8.90999984741211 a14.8100004196167,14.8100004196167 0 0 0 -1.2400000095367432,-6.820000171661377 a4.340000152587891,4.340000152587891 0 0 0 -4.150000095367432,-2.3299999237060547 a4.639999866485596,4.639999866485596 0 0 0 -4.269999980926514,2.2300000190734863 a11.539999961853027,11.539999961853027 0 0 0 -1.3700000047683716,6.070000171661377 q0,7.130000114440918 2.630000114440918,8.949999809265137 A5,5 0 0 0 430.7608947753906,294.57049560546875 z" id="svg_123"/><path class="cls-14" d="M450.6808776855469,267.4604797363281 h3.2899999618530273 v5.360000133514404 h6.730000019073486 l-0.5099999904632568,4.25 h-6.21999979019165 v13.300000190734863 a4.630000114440918,4.630000114440918 0 0 0 0.8100000023841858,3.109999895095825 a3.2200000286102295,3.2200000286102295 0 0 0 2.5,0.8799999952316284 a6.46999979019165,6.46999979019165 0 0 0 3.4200000762939453,-1.059999942779541 l1.5199999809265137,3.9000000953674316 a12.649999618530273,12.649999618530273 0 0 1 -10.270000457763672,1.1799999475479126 a6.909999847412109,6.909999847412109 0 0 1 -2.3299999237060547,-1.2799999713897705 a4.650000095367432,4.650000095367432 0 0 1 -1.159999966621399,-2.0799999237060547 a10.880000114440918,10.880000114440918 0 0 1 -0.46000000834465027,-2.1500000953674316 c0,-0.5199999809265137 -0.05000000074505806,-1.2899999618530273 -0.05000000074505806,-2.299999952316284 v-13.5 h-3.5899999141693115 l0.5099999904632568,-3.690000057220459 a4.940000057220459,4.940000057220459 0 0 0 3.5899999141693115,-1.7000000476837158 A14.779999732971191,14.779999732971191 0 0 0 450.6808776855469,267.4604797363281 z" id="svg_124"/><path class="cls-14" d="M467.2208557128906,292.5904846191406 V267.9604797363281 a1.6299999952316284,1.6299999952316284 0 0 0 -0.2800000011920929,-1.1100000143051147 a1.4199999570846558,1.4199999570846558 0 0 0 -1,-0.3499999940395355 l-1.7699999809265137,-0.10000000149011612 V262.19049072265625 h9 v13.600000381469727 a8.510000228881836,8.510000228881836 0 0 1 7.380000114440918,-3.740000009536743 a7.820000171661377,7.820000171661377 0 0 1 6,2.200000047683716 q2.0899999141693115,2.2100000381469727 2.0899999141693115,6.599999904632568 v13.199999809265137 L491.5508728027344,294.19049072265625 v4.050000190734863 h-12 v-3.8499999046325684 l1.6699999570846558,-0.15000000596046448 a1.899999976158142,1.899999976158142 0 0 0 1.1100000143051147,-0.4300000071525574 a1.649999976158142,1.649999976158142 0 0 0 0.36000001430511475,-1.2400000095367432 V282.19049072265625 a8,8 0 0 0 -0.8399999737739563,-4.050000190734863 c-0.550000011920929,-0.9399999976158142 -1.6299999952316284,-1.4199999570846558 -3.2300000190734863,-1.4199999570846558 a5.110000133514404,5.110000133514404 0 0 0 -3.8499999046325684,1.4900000095367432 a5,5 0 0 0 -1.440000057220459,3.619999885559082 v12.239999771118164 l2.880000114440918,0.15000000596046448 v4.050000190734863 h-12 v-3.8499999046325684 l1.659999966621399,-0.15000000596046448 a2,2 0 0 0 1.1200000047683716,-0.4300000071525574 A1.7000000476837158,1.7000000476837158 0 0 0 467.2208557128906,292.5904846191406 z" id="svg_125"/><path class="cls-14" d="M503.6408996582031,272.82049560546875 v21.239999771118164 L506.5508728027344,294.19049072265625 v4.050000190734863 h-12 v-3.8499999046325684 l1.6699999570846558,-0.15000000596046448 a1.4600000381469727,1.4600000381469727 0 0 0 1.4700000286102295,-1.6200000047683716 V278.58050537109375 a1.7300000190734863,1.7300000190734863 0 0 0 -0.2800000011920929,-1.159999966621399 a1.3300000429153442,1.3300000429153442 0 0 0 -1,-0.30000001192092896 l-1.7699999809265137,-0.10000000149011612 v-4.199999809265137 zm-6.380000114440918,-4.380000114440918 a3.559999942779541,3.559999942779541 0 0 1 -1.059999942779541,-2.6500000953674316 a3.940000057220459,3.940000057220459 0 0 1 6.650000095367432,-2.7100000381469727 a3.6700000762939453,3.6700000762939453 0 0 1 1.090000033378601,2.7100000381469727 a3.4800000190734863,3.4800000190734863 0 0 1 -1.090000033378601,2.6500000953674316 a3.8499999046325684,3.8499999046325684 0 0 1 -2.799999952316284,1 A3.799999952316284,3.799999952316284 0 0 1 497.2608947753906,268.44049072265625 z" id="svg_126"/><path class="cls-14" d="M509.1508483886719,276.8605041503906 v-4 h8.550000190734863 v3.2899999618530273 a9.100000381469727,9.100000381469727 0 0 1 3.490000009536743,-3 a10.25,10.25 0 0 1 4.699999809265137,-1.090000033378601 a7.809999942779541,7.809999942779541 0 0 1 5.940000057220459,2.200000047683716 q2.0999999046325684,2.2100000381469727 2.0999999046325684,6.599999904632568 v13.199999809265137 l2.880000114440918,0.15000000596046448 v4.050000190734863 h-12 v-3.8499999046325684 l1.6699999570846558,-0.15000000596046448 a2,2 0 0 0 1.1100000143051147,-0.4300000071525574 a1.7000000476837158,1.7000000476837158 0 0 0 0.3499999940395355,-1.2400000095367432 V282.19049072265625 a7.849999904632568,7.849999904632568 0 0 0 -0.8600000143051147,-4.130000114440918 c-0.5699999928474426,-0.8899999856948853 -1.659999966621399,-1.340000033378601 -3.259999990463257,-1.340000033378601 a5,5 0 0 0 -3.819999933242798,1.5199999809265137 a5.099999904632568,5.099999904632568 0 0 0 -1.409999966621399,3.5899999141693115 v12.239999771118164 l2.880000114440918,0.15000000596046448 v4.050000190734863 h-12 v-3.8499999046325684 l1.6699999570846558,-0.15000000596046448 a1.899999976158142,1.899999976158142 0 0 0 1.1100000143051147,-0.4300000071525574 a1.649999976158142,1.649999976158142 0 0 0 0.36000001430511475,-1.2400000095367432 v-14 c0,-1 -0.4300000071525574,-1.5299999713897705 -1.2699999809265137,-1.559999942779541 z" id="svg_127"/><path class="cls-14" d="M559.0708923339844,306.45050048828125 q-2.7899999618530273,2.630000114440918 -8.699999809265137,2.630000114440918 c-4,0 -7,-0.5600000023841858 -9.260000228881836,-1.6699999570846558 v-7 l4.809999942779541,-0.4000000059604645 v2.430000066757202 a1.809999942779541,1.809999942779541 0 0 0 1.2599999904632568,1.840000033378601 a10.149999618530273,10.149999618530273 0 0 0 3.490000009536743,0.47999998927116394 q3.240000009536743,0 4.550000190734863,-2 a9.670000076293945,9.670000076293945 0 0 0 1.3200000524520874,-5.480000019073486 v-2.7799999713897705 a8.40999984741211,8.40999984741211 0 0 1 -6.730000019073486,2.8299999237060547 a10.180000305175781,10.180000305175781 0 0 1 -4.630000114440918,-1 a7.900000095367432,7.900000095367432 0 0 1 -3.109999895095825,-2.7300000190734863 a14.84000015258789,14.84000015258789 0 0 1 -2.1700000762939453,-8.100000381469727 q0,-6.610000133514404 3.5899999141693115,-10 a13.319999694824219,13.319999694824219 0 0 1 9.5600004196167,-3.4100000858306885 a23.579999923706055,23.579999923706055 0 0 1 9.350000381469727,1.8700000047683716 V292.69049072265625 c0,2.869999885559082 0,4.710000038146973 -0.10000000149011612,5.519999980926514 Q561.8508605957031,303.82049560546875 559.0708923339844,306.45050048828125 zM556.5508728027344,287.94049072265625 V277.07049560546875 a12.319999694824219,12.319999694824219 0 0 0 -4,-0.6100000143051147 a5.480000019073486,5.480000019073486 0 0 0 -4.730000019073486,2.2799999713897705 a10.359999656677246,10.359999656677246 0 0 0 -1.6399999856948853,6.170000076293945 q0,8 5.260000228881836,8 a5.320000171661377,5.320000171661377 0 0 0 3.6700000762939453,-1.340000033378601 A4.650000095367432,4.650000095367432 0 0 0 556.5508728027344,287.94049072265625 z" id="svg_128"/><path class="cls-14" d="M392.3708801269531,353.2904968261719 V328.6504821777344 a1.649999976158142,1.649999976158142 0 0 0 -0.2800000011920929,-1.1100000143051147 a1.4199999570846558,1.4199999570846558 0 0 0 -1,-0.3499999940395355 l-1.7699999809265137,-0.10000000149011612 v-4.199999809265137 h9 v13.600000381469727 a8.510000228881836,8.510000228881836 0 0 1 7.380000114440918,-3.740000009536743 a7.789999961853027,7.789999961853027 0 0 1 5.940000057220459,2.200000047683716 q2.0999999046325684,2.2100000381469727 2.0999999046325684,6.599999904632568 v13.199999809265137 l2.890000104904175,0.15000000596046448 v4.050000190734863 h-12 v-3.8399999141693115 l1.6699999570846558,-0.1599999964237213 a1.9299999475479126,1.9299999475479126 0 0 0 1.1100000143051147,-0.4300000071525574 a1.6299999952316284,1.6299999952316284 0 0 0 0.3499999940395355,-1.2300000190734863 V342.8704833984375 a8,8 0 0 0 -0.8299999833106995,-4.050000190734863 c-0.5600000023841858,-0.9399999976158142 -1.6299999952316284,-1.4199999570846558 -3.240000009536743,-1.4199999570846558 a5.079999923706055,5.079999923706055 0 0 0 -3.8399999141693115,1.5 a5,5 0 0 0 -1.440000057220459,3.609999895095825 v12.239999771118164 l2.880000114440918,0.15000000596046448 v4.050000190734863 h-12 v-3.8399999141693115 l1.6699999570846558,-0.1599999964237213 a2,2 0 0 0 1.1200000047683716,-0.4300000071525574 A1.6699999570846558,1.6699999570846558 0 0 0 392.3708801269531,353.2904968261719 z" id="svg_129"/><path class="cls-14" d="M432.3208923339844,332.75048828125 a9.140000343322754,9.140000343322754 0 0 1 6,1.850000023841858 a6.340000152587891,6.340000152587891 0 0 1 2.2300000190734863,5.179999828338623 a7.840000152587891,7.840000152587891 0 0 1 -3.3399999141693115,6.579999923706055 a12.300000190734863,12.300000190734863 0 0 1 -3.440000057220459,1.559999942779541 a26.459999084472656,26.459999084472656 0 0 1 -7.639999866485596,1 a6.730000019073486,6.730000019073486 0 0 0 1.6699999570846558,4.320000171661377 a6,6 0 0 0 4.659999847412109,1.6399999856948853 a10.800000190734863,10.800000190734863 0 0 0 6.269999980926514,-2.2200000286102295 l1.9199999570846558,4.090000152587891 a11.869999885559082,11.869999885559082 0 0 1 -3.4100000858306885,1.8799999952316284 a14.770000457763672,14.770000457763672 0 0 1 -5.489999771118164,1 c-4.119999885559082,0 -7.130000114440918,-1.1399999856948853 -9.0600004196167,-3.4200000762939453 s-2.880000114440918,-5.400000095367432 -2.880000114440918,-9.380000114440918 a15.369999885559082,15.369999885559082 0 0 1 3.2899999618530273,-10 A11.1899995803833,11.1899995803833 0 0 1 432.3208923339844,332.75048828125 zm-2.299999952316284,11.5600004196167 a8.25,8.25 0 0 0 3.4200000762939453,-1.4700000286102295 a3.299999952316284,3.299999952316284 0 0 0 1.559999942779541,-2.700000047683716 q0,-3.0899999141693115 -3,-3.0899999141693115 a4.929999828338623,4.929999828338623 0 0 0 -4.349999904632568,2.25 a10.350000381469727,10.350000381469727 0 0 0 -1.6699999570846558,5.389999866485596 A27.3700008392334,27.3700008392334 0 0 0 430.0208435058594,344.31048583984375 z" id="svg_130"/><path class="cls-14" d="M447.2408752441406,353.2904968261719 v-14 a1.8300000429153442,1.8300000429153442 0 0 0 -0.27000001072883606,-1.1399999856948853 a1.3799999952316284,1.3799999952316284 0 0 0 -1,-0.3799999952316284 l-2.119999885559082,-0.15000000596046448 v-4.099999904632568 h8.539999961853027 v3.7899999618530273 a7.860000133514404,7.860000133514404 0 0 1 2.8399999141693115,-3.259999990463257 a7.730000019073486,7.730000019073486 0 0 1 4.420000076293945,-1.2899999618530273 a10.779999732971191,10.779999732971191 0 0 1 4.78000020980835,1.1100000143051147 v7.539999961853027 l-4.699999809265137,0.3499999940395355 v-2.319999933242798 c0,-0.6800000071525574 -0.17000000178813934,-1.100000023841858 -0.5099999904632568,-1.2699999809265137 a3.2899999618530273,3.2899999618530273 0 0 0 -1.3700000047683716,-0.25 a4.25,4.25 0 0 0 -3.309999942779541,1.440000057220459 a5.289999961853027,5.289999961853027 0 0 0 -1.2899999618530273,3.6700000762939453 v11.729999542236328 l4.400000095367432,0.20000000298023224 v4 H444.1108703613281 v-3.8399999141693115 l1.6699999570846558,-0.1599999964237213 a2,2 0 0 0 1.1100000143051147,-0.4300000071525574 A1.6299999952316284,1.6299999952316284 0 0 0 447.2408752441406,353.2904968261719 z" id="svg_131"/><path class="cls-14" d="M480.1708679199219,332.75048828125 a9.15999984741211,9.15999984741211 0 0 1 6,1.850000023841858 a6.369999885559082,6.369999885559082 0 0 1 2.2200000286102295,5.179999828338623 a7.800000190734863,7.800000190734863 0 0 1 -1,3.9200000762939453 a7.710000038146973,7.710000038146973 0 0 1 -2.380000114440918,2.6600000858306885 a12.300000190734863,12.300000190734863 0 0 1 -3.440000057220459,1.559999942779541 a26.389999389648438,26.389999389648438 0 0 1 -7.630000114440918,1 a6.730000019073486,6.730000019073486 0 0 0 1.6699999570846558,4.320000171661377 a6,6 0 0 0 4.650000095367432,1.6399999856948853 a10.800000190734863,10.800000190734863 0 0 0 6.269999980926514,-2.2200000286102295 l1.9199999570846558,4.090000152587891 a11.729999542236328,11.729999542236328 0 0 1 -3.4100000858306885,1.8799999952316284 a14.6899995803833,14.6899995803833 0 0 1 -5.489999771118164,1 q-6.159999847412109,0 -9,-3.4200000762939453 t-2.880000114440918,-9.380000114440918 a15.359999656677246,15.359999656677246 0 0 1 3.2799999713897705,-10 A11.1899995803833,11.1899995803833 0 0 1 480.1708679199219,332.75048828125 zm-2.299999952316284,11.5600004196167 a8.149999618530273,8.149999618530273 0 0 0 3.4100000858306885,-1.4700000286102295 a3.309999942779541,3.309999942779541 0 0 0 1.5700000524520874,-2.700000047683716 q0,-3.0899999141693115 -3,-3.0899999141693115 a5,5 0 0 0 -4.349999904632568,2.25 a10.34000015258789,10.34000015258789 0 0 0 -1.659999966621399,5.389999866485596 A27.5,27.5 0 0 0 477.8708801269531,344.31048583984375 z" id="svg_132"/><path class="cls-14" d="M496.0008850097656,359.7104797363281 a3.630000114440918,3.630000114440918 0 0 1 -2.7300000190734863,-1 a3.549999952316284,3.549999952316284 0 0 1 -1,-2.5799999237060547 a3.6500000953674316,3.6500000953674316 0 0 1 1,-2.630000114440918 a3.5299999713897705,3.5299999713897705 0 0 1 2.680000066757202,-1 a3.759999990463257,3.759999990463257 0 0 1 2.7100000381469727,1 a3.4700000286102295,3.4700000286102295 0 0 1 1,2.5799999237060547 a3.7200000286102295,3.7200000286102295 0 0 1 -1,2.630000114440918 A3.5399999618530273,3.5399999618530273 0 0 1 496.0008850097656,359.7104797363281 z" id="svg_133"/><path class="cls-14" d="M507.4308776855469,359.7104797363281 a3.630000114440918,3.630000114440918 0 0 1 -2.7300000190734863,-1 a3.549999952316284,3.549999952316284 0 0 1 -1,-2.5799999237060547 a3.6500000953674316,3.6500000953674316 0 0 1 1,-2.630000114440918 a3.5299999713897705,3.5299999713897705 0 0 1 2.680000066757202,-1 a3.759999990463257,3.759999990463257 0 0 1 2.7100000381469727,1 a3.4700000286102295,3.4700000286102295 0 0 1 1,2.5799999237060547 a3.7200000286102295,3.7200000286102295 0 0 1 -1,2.630000114440918 A3.5399999618530273,3.5399999618530273 0 0 1 507.4308776855469,359.7104797363281 z" id="svg_134"/><path class="cls-14" d="M518.8608703613281,359.7104797363281 a3.630000114440918,3.630000114440918 0 0 1 -2.7300000190734863,-1 a3.549999952316284,3.549999952316284 0 0 1 -1,-2.5799999237060547 a3.6500000953674316,3.6500000953674316 0 0 1 1,-2.630000114440918 a3.5299999713897705,3.5299999713897705 0 0 1 2.680000066757202,-1 a3.759999990463257,3.759999990463257 0 0 1 2.7100000381469727,1 a3.4700000286102295,3.4700000286102295 0 0 1 1,2.5799999237060547 a3.7200000286102295,3.7200000286102295 0 0 1 -1,2.630000114440918 A3.5399999618530273,3.5399999618530273 0 0 1 518.8608703613281,359.7104797363281 z" id="svg_135"/></g></g></svg>