<svg id="Layer_1" data-name="Layer 1" xmlns="http://www.w3.org/2000/svg" xmlns:xlink="http://www.w3.org/1999/xlink" viewBox="0 0 1500 1200"><defs><style>.cls-1,.cls-7{fill:none;}.cls-2{clip-path:url(#clip-path);}.cls-3{fill:#e8e8e8;}.cls-4{fill:#cecece;}.cls-5{fill:#8c0027;}.cls-6{fill:#c16e57;}.cls-7{stroke:#f8c09d;stroke-miterlimit:10;stroke-width:29px;}.cls-8{fill:#4c2a18;}.cls-9{fill:#9b4531;}.cls-10{fill:#cc7a5e;}.cls-11{fill:#f8c09d;}.cls-12{fill:#ba624a;}.cls-13{fill:#ee8379;}.cls-14{fill:#262626;}.cls-15{fill:#d88068;}.cls-16{fill:#515151;}.cls-17{fill:#d8e8ea;}.cls-18{fill:#777;}.cls-19{fill:#fff;}</style><clipPath id="clip-path"><rect class="cls-1" y="-0.61" width="1600" height="1080"/></clipPath></defs><title>404Image</title><g class="cls-2"><path class="cls-5"/><path class="cls-6" d="M1581.76,1073.73h-53.3V887.63A78.82,78.82,0,0,0,1517,846.69l-97.31-160.1,45.55-27.68L1562.54,819a132.16,132.16,0,0,1,19.22,68.63Z"/><path class="cls-7" d="M1210.17,696.27l-95.32,149.08a60.24,60.24,0,0,1-93.34,10.15l-133-133"/><path class="cls-6" d="M1064,899.8a86.42,86.42,0,0,1-61.3-25.46L889,760.62l37.69-37.69,113.72,113.72a33.58,33.58,0,0,0,52-5.66l95.32-149.07,44.91,28.71-95.32,149.08A87.1,87.1,0,0,1,1064,899.8Z"/><path class="cls-8" d="M1186.14,494.57h0a12.51,12.51,0,0,1-12.52-12.52V386.3a2,2,0,0,1,2-2h21.09a2,2,0,0,1,2,2v95.75A12.51,12.51,0,0,1,1186.14,494.57Z"/><path class="cls-6" d="M1267,616.93h103.35a86.92,86.92,0,0,1,86.92,86.92v372.21a0,0,0,0,1,0,0H1180a0,0,0,0,1,0,0V703.85A86.92,86.92,0,0,1,1267,616.93Z"/><path class="cls-9" d="M1218.66,370.58h175.5l5.26,4.89c29,27,20,48.81-20.05,48.81H1349c-40.06,0-96-21.85-125-48.81Z"/><path class="cls-10" d="M1500.8,740.19V855.58H1136.47V740.19a123.25,123.25,0,0,1,123.26-123.26h117.81A123.25,123.25,0,0,1,1500.8,740.19Z"/><path class="cls-11" d="M1270,539.39h68.22a0,0,0,0,1,0,0v77.72a32.74,32.74,0,0,1-32.74,32.74h-2.75A32.74,32.74,0,0,1,1270,617.11V539.39A0,0,0,0,1,1270,539.39Z"/><path class="cls-11" d="M1391.28,346.78V487.11a106.3,106.3,0,0,1-212.6,0V346.78Z"/><polygon class="cls-8" points="1391.28 346.78 1391.28 442.48 1375.21 442.48 1375.21 364.55 1178.68 364.55 1178.68 346.78 1391.28 346.78"/><path class="cls-8" d="M1371.18,494.57h0a12.52,12.52,0,0,1-12.52-12.52V367.33a2,2,0,0,1,2-2h21.09a2,2,0,0,1,2,2V482.05A12.52,12.52,0,0,1,1371.18,494.57Z"/><path class="cls-12" d="M1394.2,334.44v36.17H1175.76V334.44a109.22,109.22,0,0,1,218.44,0Z"/><path class="cls-10" d="M1351.39,334.44v36.17H1175.76V334.44a109.24,109.24,0,0,1,87.83-107.11,109.25,109.25,0,0,1,87.8,107.11Z"/><path class="cls-13" d="M1253,486.9h0a18.18,18.18,0,0,1-18.18-18.17V445.51A18.17,18.17,0,0,1,1253,427.34h0a18.17,18.17,0,0,1,18.17,18.17v23.22A18.18,18.18,0,0,1,1253,486.9Z"/><path class="cls-13" d="M1387.62,484.57l-5,2.33V427.34l5-2.34c12.61-5.84,22.83,2.75,22.83,19.2h0C1410.45,460.64,1400.23,478.72,1387.62,484.57Z"/><circle class="cls-14" cx="1304.1" cy="422.34" r="10.45"/><circle class="cls-14" cx="1215.26" cy="422.34" r="10.45"/><circle class="cls-12" cx="1284.72" cy="215.59" r="10.45" transform="translate(780.99 1416.94) rotate(-76.78)"/><path class="cls-10" d="M1253.07,509.71h0a6.67,6.67,0,0,1-6.67,6.67h-18.14a46.07,46.07,0,0,0-32.58,13.49l-27.26,27.26a58.89,58.89,0,0,1-39.28,17.34c-.89,0-1.8.06-2.69.06h-11.37a15.88,15.88,0,0,1-6.78-1.51V561.2h18.15A45.76,45.76,0,0,0,1159,547.72l27.27-27.27a59,59,0,0,1,42-17.4h18.14A6.67,6.67,0,0,1,1253.07,509.71Z"/><path class="cls-10" d="M1134.53,515.17a9.33,9.33,0,0,1,9.33,9.32v34a16.05,16.05,0,0,1-14.72,16c-.44,0-.89.06-1.34.06h-12.72a15.88,15.88,0,0,1-6.78-1.51,16,16,0,0,1-9.27-14.55v-34a9.33,9.33,0,0,1,9.33-9.32Z"/><path class="cls-8" d="M1311.1,405h-20.37a7.53,7.53,0,0,1-7.53-7.53h0a7.53,7.53,0,0,1,7.53-7.53h20.37a7.54,7.54,0,0,1,7.54,7.53h0A7.54,7.54,0,0,1,1311.1,405Z"/><path class="cls-15" d="M1351.57,370.58h-175.5l-5.27,3.6c-29,19.87-20,36,20,36h30.43c40.06,0,96-16.1,125-36Z"/><path class="cls-16" d="M871.42,753.17h0A10.9,10.9,0,0,1,859,744L841.9,630.41a.7.7,0,0,1,.59-.8l20.17-3a.7.7,0,0,1,.8.59l17.12,113.61A10.91,10.91,0,0,1,871.42,753.17Z"/><circle class="cls-17" cx="844.76" cy="576.18" r="53.81" transform="translate(0.13 1152.54) rotate(-68.61)"/><path class="cls-18" d="M853.59,634.78a59.26,59.26,0,1,1,49.77-67.43A59.34,59.34,0,0,1,853.59,634.78Zm-16-106.42a48.35,48.35,0,1,0,55,40.62A48.41,48.41,0,0,0,837.56,528.36Z"/><rect class="cls-10" x="848.98" y="642.82" width="26.15" height="96.31" transform="translate(-93.3 136.09) rotate(-8.57)"/><circle class="cls-19" cx="821.64" cy="558.58" r="13.28" transform="matrix(0.8, -0.61, 0.61, 0.8, -170.46, 611.95)"/><path class="cls-6" d="M1301.78,645.88h0A68.19,68.19,0,0,1,1370,714.08V919.78a0,0,0,0,1,0,0H1233.59a0,0,0,0,1,0,0V714.08a68.19,68.19,0,0,1,68.19-68.19Z"/><circle class="cls-9" cx="1301.78" cy="708.39" r="12.11" transform="translate(406.94 1889.79) rotate(-81.41)"/><circle class="cls-9" cx="1301.78" cy="778.65" r="12.11" transform="translate(-185.23 479.1) rotate(-19.5)"/><circle class="cls-9" cx="1301.78" cy="855.58" r="12.11"/><circle class="cls-9" cx="1301.78" cy="925.84" r="12.11"/><circle class="cls-9" cx="1301.78" cy="993.68" r="12.11"/><polygon class="cls-12" points="1366.08 651.14 1329.26 693.47 1301.78 648.55 1338.6 606.23 1366.08 651.14"/><polygon class="cls-12" points="1242.12 651.14 1278.93 693.47 1306.42 648.55 1269.6 606.23 1242.12 651.14"/><circle class="cls-11" cx="865.37" cy="698.36" r="48.51" transform="translate(39.21 1442.68) rotate(-80.92)"/><circle class="cls-18" cx="1095.04" cy="472.01" r="14.89"/><circle class="cls-18" cx="1107.35" cy="496.44" r="7.02"/><circle class="cls-18" cx="1086.36" cy="345.81" r="19.13"/><circle class="cls-18" cx="1114.42" cy="433.85" r="19.13"/><circle class="cls-18" cx="1116.78" cy="415.4" r="27.08" transform="translate(-73.63 467.25) rotate(-22.9)"/><circle class="cls-18" cx="1082.35" cy="314.94" r="33.44"/><path class="cls-19" d="M1006.23,415.72h0a7.31,7.31,0,0,1,9.77-3.4l49.57,24a7.32,7.32,0,0,1,3.4,9.77h0a7.31,7.31,0,0,1-9.77,3.4l-49.57-24A7.31,7.31,0,0,1,1006.23,415.72Z"/><rect class="cls-19" x="741.14" y="185.56" width="288.59" height="258.36" rx="62.61" ry="62.61"/><path class="cls-14" d="M810.09,262.71v-23h-3.94c-.78,0-1.17.53-1.17,1.57v2.38l-5.16-.36v-8.59h26.46v8.59l-5.16.36v-2.38a2.13,2.13,0,0,0-.26-1.21c-.17-.24-.57-.36-1.21-.36h-3.44v24.18l4,.15v4.3H805.94v-4.1l2.68-.15C809.6,264,810.09,263.56,810.09,262.71Z"/><path class="cls-14" d="M831.79,262.71V238.08a1.69,1.69,0,0,0-.28-1.11,1.45,1.45,0,0,0-1-.35l-1.77-.1v-4.2h9v13.6a8.51,8.51,0,0,1,7.38-3.74,7.81,7.81,0,0,1,5.94,2.2q2.1,2.2,2.1,6.6v13.2l2.88.15v4.05H844v-3.85l1.67-.15a2,2,0,0,0,1.11-.43,1.7,1.7,0,0,0,.35-1.24V252.29a8.09,8.09,0,0,0-.83-4c-.56-.94-1.64-1.42-3.24-1.42a5.11,5.11,0,0,0-3.84,1.49,5,5,0,0,0-1.44,3.62v12.24l2.88.15v4.05h-12v-3.85l1.67-.15a1.9,1.9,0,0,0,1.11-.43A1.65,1.65,0,0,0,831.79,262.71Z"/><path class="cls-14" d="M871.74,242.18a9.08,9.08,0,0,1,6,1.85,6.36,6.36,0,0,1,2.23,5.18,7.81,7.81,0,0,1-3.34,6.57,12.15,12.15,0,0,1-3.44,1.57,26.52,26.52,0,0,1-7.64,1,6.73,6.73,0,0,0,1.67,4.33,6.06,6.06,0,0,0,4.66,1.64,10.85,10.85,0,0,0,6.27-2.22l1.92,4.09a12,12,0,0,1-3.42,1.87,14.67,14.67,0,0,1-5.48,1c-4.12,0-7.13-1.14-9.06-3.42s-2.88-5.4-2.88-9.38a15.35,15.35,0,0,1,3.29-10A11.19,11.19,0,0,1,871.74,242.18Zm-2.3,11.56a8.25,8.25,0,0,0,3.42-1.47,3.3,3.3,0,0,0,1.56-2.71q0-3.08-3-3.08a4.93,4.93,0,0,0-4.35,2.25,10.35,10.35,0,0,0-1.67,5.39A27.5,27.5,0,0,0,869.44,253.74Z"/><path class="cls-14" d="M886.66,262.71v-14a1.75,1.75,0,0,0-.28-1.13,1.33,1.33,0,0,0-1-.38l-2.13-.15v-4.1h8.55v3.79a7.9,7.9,0,0,1,2.83-3.26,7.76,7.76,0,0,1,4.43-1.29,10.78,10.78,0,0,1,4.78,1.11v7.54l-4.71.35v-2.32c0-.68-.17-1.1-.5-1.27a3.29,3.29,0,0,0-1.37-.25,4.24,4.24,0,0,0-3.31,1.44,5.29,5.29,0,0,0-1.29,3.67v11.73l4.4.2v4H883.53v-3.85l1.66-.15a2,2,0,0,0,1.12-.43A1.7,1.7,0,0,0,886.66,262.71Z"/><path class="cls-14" d="M919.59,242.18a9.1,9.1,0,0,1,6,1.85,6.35,6.35,0,0,1,2.22,5.18,7.83,7.83,0,0,1-1,3.92,7.67,7.67,0,0,1-2.38,2.65,12,12,0,0,1-3.44,1.57,26.45,26.45,0,0,1-7.63,1,6.68,6.68,0,0,0,1.67,4.33,6,6,0,0,0,4.65,1.64,10.8,10.8,0,0,0,6.27-2.22l1.92,4.09a11.76,11.76,0,0,1-3.41,1.87,14.69,14.69,0,0,1-5.49,1q-6.16,0-9-3.42t-2.89-9.38a15.35,15.35,0,0,1,3.29-10A11.19,11.19,0,0,1,919.59,242.18Zm-2.3,11.56a8.21,8.21,0,0,0,3.41-1.47,3.31,3.31,0,0,0,1.57-2.71q0-3.08-3-3.08a4.94,4.94,0,0,0-4.35,2.25,10.35,10.35,0,0,0-1.67,5.39A27.64,27.64,0,0,0,917.29,253.74Z"/><path class="cls-14" d="M931.27,243.19l2.93-11.94a14.15,14.15,0,0,1,4.66,1.17,1.68,1.68,0,0,1,1,1.57,4,4,0,0,1-.56,2l-4.81,8.34Z"/><path class="cls-14" d="M951.3,246.78a8.49,8.49,0,0,0-2.94-.45,4.46,4.46,0,0,0-2.75.78,2.34,2.34,0,0,0-1,1.92,3.47,3.47,0,0,0,.38,1.77,3.09,3.09,0,0,0,1.19,1.09,15,15,0,0,0,3,1.14c1.18.32,2.06.57,2.63.76a15.28,15.28,0,0,1,2.15.93,6.39,6.39,0,0,1,1.95,1.42,6.71,6.71,0,0,1,1.77,4.8,7.13,7.13,0,0,1-2.76,5.95,11,11,0,0,1-7,2.15c-4.12,0-7.22-.53-9.31-1.57v-7l4.55-.36v2.43q0,2.24,4.25,2.23t4.25-3.09a2.41,2.41,0,0,0-.73-1.82,4.2,4.2,0,0,0-1.44-1c-.48-.17-1-.34-1.7-.51s-1.3-.33-1.92-.5a20.9,20.9,0,0,1-2-.68,15.37,15.37,0,0,1-2.4-1.24q-2.58-1.68-2.58-5.59a7.16,7.16,0,0,1,2.78-6,11.23,11.23,0,0,1,7-2.12,18.87,18.87,0,0,1,8.37,2v6.07l-4.55.36V248.5A1.71,1.71,0,0,0,951.3,246.78Z"/><path class="cls-14" d="M800.43,307.67v-4H809v3.29a9.17,9.17,0,0,1,3.49-3,10.31,10.31,0,0,1,4.7-1.09,7.79,7.79,0,0,1,5.94,2.2q2.1,2.21,2.1,6.6v13.2l2.89.15v4.05h-12v-3.85l1.67-.15a1.93,1.93,0,0,0,1.11-.43,1.66,1.66,0,0,0,.35-1.24V313a7.86,7.86,0,0,0-.85-4.13c-.58-.89-1.67-1.34-3.27-1.34a5,5,0,0,0-3.82,1.52,5.1,5.1,0,0,0-1.41,3.59v12.24l2.88.15v4.05h-12v-3.85l1.67-.15a2,2,0,0,0,1.12-.43,1.7,1.7,0,0,0,.35-1.24v-14q0-1.51-1.26-1.56Z"/><path class="cls-14" d="M830.57,316.32a17.37,17.37,0,0,1,1.12-6.5,10,10,0,0,1,3-4.22,12.81,12.81,0,0,1,7.94-2.73,12,12,0,0,1,5.14,1,10.36,10.36,0,0,1,3.28,2.27,10.6,10.6,0,0,1,2,3.74,18.26,18.26,0,0,1,.83,5.8q0,7-3.39,10.57a11.41,11.41,0,0,1-8.67,3.59,10.39,10.39,0,0,1-8.27-3.42Q830.58,323,830.57,316.32Zm11.64,9.06q5.5,0,5.51-8.91a14.81,14.81,0,0,0-1.24-6.82,4.34,4.34,0,0,0-4.15-2.33,4.64,4.64,0,0,0-4.27,2.23,11.54,11.54,0,0,0-1.37,6.07q0,7.13,2.63,8.95A5,5,0,0,0,842.21,325.38Z"/><path class="cls-14" d="M862.13,298.27h3.29v5.36h6.73l-.51,4.25h-6.22v13.3a4.63,4.63,0,0,0,.81,3.11,3.22,3.22,0,0,0,2.5.88,6.47,6.47,0,0,0,3.42-1.06l1.52,3.9a12.65,12.65,0,0,1-10.27,1.18,6.91,6.91,0,0,1-2.33-1.28,4.65,4.65,0,0,1-1.16-2.08,10.88,10.88,0,0,1-.46-2.15c0-.52-.05-1.29-.05-2.3v-13.5h-3.59l.51-3.69a4.94,4.94,0,0,0,3.59-1.7A14.78,14.78,0,0,0,862.13,298.27Z"/><path class="cls-14" d="M878.67,323.4V298.77a1.63,1.63,0,0,0-.28-1.11,1.42,1.42,0,0,0-1-.35l-1.77-.1V293h9v13.6a8.51,8.51,0,0,1,7.38-3.74,7.82,7.82,0,0,1,6,2.2q2.09,2.21,2.09,6.6v13.2L903,325v4.05h-12v-3.85l1.67-.15a1.9,1.9,0,0,0,1.11-.43,1.65,1.65,0,0,0,.36-1.24V313a8,8,0,0,0-.84-4.05c-.55-.94-1.63-1.42-3.23-1.42a5.11,5.11,0,0,0-3.85,1.49,5,5,0,0,0-1.44,3.62v12.24l2.88.15v4.05h-12v-3.85l1.66-.15a2,2,0,0,0,1.12-.43A1.7,1.7,0,0,0,878.67,323.4Z"/><path class="cls-14" d="M915.09,303.63v21.24L918,325v4.05h-12v-3.85l1.67-.15a1.46,1.46,0,0,0,1.47-1.62V309.39a1.73,1.73,0,0,0-.28-1.16,1.33,1.33,0,0,0-1-.3l-1.77-.1v-4.2Zm-6.38-4.38a3.56,3.56,0,0,1-1.06-2.65,3.94,3.94,0,0,1,6.65-2.71,3.67,3.67,0,0,1,1.09,2.71,3.48,3.48,0,0,1-1.09,2.65,3.85,3.85,0,0,1-2.8,1A3.8,3.8,0,0,1,908.71,299.25Z"/><path class="cls-14" d="M920.6,307.67v-4h8.55v3.29a9.1,9.1,0,0,1,3.49-3,10.25,10.25,0,0,1,4.7-1.09,7.81,7.81,0,0,1,5.94,2.2q2.1,2.21,2.1,6.6v13.2l2.88.15v4.05h-12v-3.85l1.67-.15a2,2,0,0,0,1.11-.43,1.7,1.7,0,0,0,.35-1.24V313a7.85,7.85,0,0,0-.86-4.13c-.57-.89-1.66-1.34-3.26-1.34a5,5,0,0,0-3.82,1.52,5.1,5.1,0,0,0-1.41,3.59v12.24l2.88.15v4.05h-12v-3.85l1.67-.15a1.9,1.9,0,0,0,1.11-.43,1.65,1.65,0,0,0,.36-1.24v-14c0-1-.43-1.53-1.27-1.56Z"/><path class="cls-14" d="M970.52,337.26q-2.79,2.63-8.7,2.63c-4,0-7-.56-9.26-1.67v-7l4.81-.4v2.43a1.81,1.81,0,0,0,1.26,1.84,10.15,10.15,0,0,0,3.49.48q3.24,0,4.55-2a9.67,9.67,0,0,0,1.32-5.48v-2.78a8.41,8.41,0,0,1-6.73,2.83,10.18,10.18,0,0,1-4.63-1,7.9,7.9,0,0,1-3.11-2.73,14.84,14.84,0,0,1-2.17-8.1q0-6.61,3.59-10a13.32,13.32,0,0,1,9.56-3.41,23.58,23.58,0,0,1,9.35,1.87V323.5c0,2.87,0,4.71-.1,5.52Q973.3,334.63,970.52,337.26ZM968,318.75V307.88a12.32,12.32,0,0,0-4-.61,5.48,5.48,0,0,0-4.73,2.28,10.36,10.36,0,0,0-1.64,6.17q0,8,5.26,8a5.32,5.32,0,0,0,3.67-1.34A4.65,4.65,0,0,0,968,318.75Z"/><path class="cls-14" d="M803.82,384.1V359.46a1.65,1.65,0,0,0-.28-1.11,1.42,1.42,0,0,0-1-.35l-1.77-.1v-4.2h9v13.6a8.51,8.51,0,0,1,7.38-3.74,7.79,7.79,0,0,1,5.94,2.2q2.1,2.21,2.1,6.6v13.2l2.89.15v4.05h-12v-3.84l1.67-.16a1.93,1.93,0,0,0,1.11-.43,1.63,1.63,0,0,0,.35-1.23V373.68a8,8,0,0,0-.83-4.05c-.56-.94-1.63-1.42-3.24-1.42a5.08,5.08,0,0,0-3.84,1.5,5,5,0,0,0-1.44,3.61v12.24l2.88.15v4.05h-12v-3.84l1.67-.16a2,2,0,0,0,1.12-.43A1.67,1.67,0,0,0,803.82,384.1Z"/><path class="cls-14" d="M843.77,363.56a9.14,9.14,0,0,1,6,1.85,6.34,6.34,0,0,1,2.23,5.18,7.84,7.84,0,0,1-3.34,6.58,12.3,12.3,0,0,1-3.44,1.56,26.46,26.46,0,0,1-7.64,1,6.73,6.73,0,0,0,1.67,4.32,6,6,0,0,0,4.66,1.64,10.8,10.8,0,0,0,6.27-2.22l1.92,4.09a11.87,11.87,0,0,1-3.41,1.88,14.77,14.77,0,0,1-5.49,1c-4.12,0-7.13-1.14-9.06-3.42s-2.88-5.4-2.88-9.38a15.37,15.37,0,0,1,3.29-10A11.19,11.19,0,0,1,843.77,363.56Zm-2.3,11.56a8.25,8.25,0,0,0,3.42-1.47,3.3,3.3,0,0,0,1.56-2.7q0-3.09-3-3.09a4.93,4.93,0,0,0-4.35,2.25,10.35,10.35,0,0,0-1.67,5.39A27.37,27.37,0,0,0,841.47,375.12Z"/><path class="cls-14" d="M858.69,384.1v-14a1.83,1.83,0,0,0-.27-1.14,1.38,1.38,0,0,0-1-.38l-2.12-.15v-4.1h8.54v3.79a7.86,7.86,0,0,1,2.84-3.26,7.73,7.73,0,0,1,4.42-1.29,10.78,10.78,0,0,1,4.78,1.11v7.54l-4.7.35v-2.32c0-.68-.17-1.1-.51-1.27a3.29,3.29,0,0,0-1.37-.25,4.25,4.25,0,0,0-3.31,1.44,5.29,5.29,0,0,0-1.29,3.67v11.73l4.4.2v4H855.56v-3.84l1.67-.16a2,2,0,0,0,1.11-.43A1.63,1.63,0,0,0,858.69,384.1Z"/><path class="cls-14" d="M891.62,363.56a9.16,9.16,0,0,1,6,1.85,6.37,6.37,0,0,1,2.22,5.18,7.8,7.8,0,0,1-1,3.92,7.71,7.71,0,0,1-2.38,2.66,12.3,12.3,0,0,1-3.44,1.56,26.39,26.39,0,0,1-7.63,1,6.73,6.73,0,0,0,1.67,4.32,6,6,0,0,0,4.65,1.64,10.8,10.8,0,0,0,6.27-2.22l1.92,4.09a11.73,11.73,0,0,1-3.41,1.88,14.69,14.69,0,0,1-5.49,1q-6.16,0-9-3.42t-2.88-9.38a15.36,15.36,0,0,1,3.28-10A11.19,11.19,0,0,1,891.62,363.56Zm-2.3,11.56a8.15,8.15,0,0,0,3.41-1.47,3.31,3.31,0,0,0,1.57-2.7q0-3.09-3-3.09a5,5,0,0,0-4.35,2.25,10.34,10.34,0,0,0-1.66,5.39A27.5,27.5,0,0,0,889.32,375.12Z"/><path class="cls-14" d="M907.45,390.52a3.63,3.63,0,0,1-2.73-1,3.55,3.55,0,0,1-1-2.58,3.65,3.65,0,0,1,1-2.63,3.53,3.53,0,0,1,2.68-1,3.76,3.76,0,0,1,2.71,1,3.47,3.47,0,0,1,1,2.58,3.72,3.72,0,0,1-1,2.63A3.54,3.54,0,0,1,907.45,390.52Z"/><path class="cls-14" d="M918.88,390.52a3.63,3.63,0,0,1-2.73-1,3.55,3.55,0,0,1-1-2.58,3.65,3.65,0,0,1,1-2.63,3.53,3.53,0,0,1,2.68-1,3.76,3.76,0,0,1,2.71,1,3.47,3.47,0,0,1,1,2.58,3.72,3.72,0,0,1-1,2.63A3.54,3.54,0,0,1,918.88,390.52Z"/><path class="cls-14" d="M930.31,390.52a3.63,3.63,0,0,1-2.73-1,3.55,3.55,0,0,1-1-2.58,3.65,3.65,0,0,1,1-2.63,3.53,3.53,0,0,1,2.68-1,3.76,3.76,0,0,1,2.71,1,3.47,3.47,0,0,1,1,2.58,3.72,3.72,0,0,1-1,2.63A3.54,3.54,0,0,1,930.31,390.52Z"/></g></svg>